# xmcd
#
# Track frame offsets: 
#        183
#        11823
#        26045
#        36235
#        50238
#        62725
#        74308
#        84123
#        91650
#        100250
#        113960
#        127005
#        138618
#        148720
#        158258
#        165755
#        176010
#        187350
#        199040
#        212133
#        221298
#        231590
#        242470
#        253595
#        263550
#
# Disc length: 3656 seconds
#
# Revision: 0
# Processed by: cddbd v1.5PL3 Copyright (c) Steve Scherf et al.
# Submitted via: ExactAudioCopy v0.95a3
#
DISCID=650e4619
DTITLE=Various Artist - Mo Betta - St. Louis R&B 1956-1966
DYEAR=1900
DGENRE=R&B
TTITLE0=Willie King - Peg Leg Woman
TTITLE1=Willie King - Mistreating Me
TTITLE2=Screamin' Joe Neal - Rock 'n' Roll Deacon
TTITLE3=Screamin' Joe Neal - Tell Me Pretty Baby
TTITLE4=Little Aaron - East St. Louis
TTITLE5=Little Aaron - My Baby
TTITLE6=Johnny Lee Williams - Teach Me Now
TTITLE7=Benny Sharp - St. Louis Sunset Twist
TTITLE8=Little Miss Jessie - My Baby Has Gone
TTITLE9=Screamin' Joe Neal - She's My Baby
TTITLE10=Screamin' Joe Neal - Don't Quit Me Baby
TTITLE11=Johnny Lee Williams - Nona Baby
TTITLE12=Johnny Lee Williams - Look Our Pretty Baby
TTITLE13=The Earthworms - Fishtail
TTITLE14=The Kinglets - My Baby Don't Need Changing
TTITLE15=The Kinglets - Pretty Please
TTITLE16=The Rockers - Tell My Why
TTITLE17=Little Herbert and The Arabians - Condition Your Heart
TTITLE18=The Emeralds - Rumblin' Tumblin' Baby
TTITLE19=Fred Green - Wham Slam Bam
TTITLE20=Ike Turner's Kings of Rhythm - My Love
TTITLE21=Ike Turner's Kings of Rhythm - That's All I Need
TTITLE22=Art Lassiter - It's Alright
TTITLE23=Oliver Sain - Eastside Blues
TTITLE24=Robert T. Smith - Workin' Again
EXTD=
EXTT0=
EXTT1=
EXTT2=
EXTT3=
EXTT4=
EXTT5=
EXTT6=
EXTT7=
EXTT8=
EXTT9=
EXTT10=
EXTT11=
EXTT12=
EXTT13=
EXTT14=
EXTT15=
EXTT16=
EXTT17=
EXTT18=
EXTT19=
EXTT20=
EXTT21=
EXTT22=
EXTT23=
EXTT24=
PLAYORDER=
